# WaveFront *.obj file (generated by Autodesk ATF)

mtllib AR_FORM.mtl

g Body1

v 0.000000 0.000000 0.100000
v 0.050000 -0.050000 0.050000
v 0.050000 0.050000 0.050000
v -0.050000 0.050000 0.050000
v 0.000000 0.000000 0.000000
v -0.050000 -0.050000 0.050000
vt -7.071068 5.000000 0.000000
vt -0.000000 0.000000 0.000000
vt -0.000000 10.000000 0.000000
vt -0.000000 10.000000 0.000000
vt -7.071068 5.000000 0.000000
vt -0.000000 0.000000 0.000000
vt 0.000000 5.000000 0.000000
vt -7.071068 10.000000 0.000000
vt -7.071068 0.000000 0.000000
vt -7.071068 0.000000 0.000000
vt -0.000000 5.000000 0.000000
vt -7.071068 10.000000 0.000000
vt -7.071068 0.000000 0.000000
vt -0.000000 5.000000 0.000000
vt -7.071068 10.000000 0.000000
vt -7.071068 0.000000 0.000000
vt 0.000000 5.000000 0.000000
vt -7.071068 10.000000 0.000000
vt -7.071068 5.000000 0.000000
vt -0.000000 0.000000 0.000000
vt -0.000000 10.000000 0.000000
vt -7.071068 5.000000 0.000000
vt -0.000000 0.000000 0.000000
vt -0.000000 10.000000 0.000000
vn 70.710678 -0.000000 70.710678
vn 70.710678 -0.000000 70.710678
vn 70.710678 -0.000000 70.710678
vn -70.710678 0.000000 -70.710678
vn -70.710678 0.000000 -70.710678
vn -70.710678 0.000000 -70.710678
vn -70.710678 0.000000 70.710678
vn -70.710678 0.000000 70.710678
vn -70.710678 0.000000 70.710678
vn 70.710678 0.000000 -70.710678
vn 70.710678 0.000000 -70.710678
vn 70.710678 0.000000 -70.710678
vn -0.000000 70.710678 -70.710678
vn -0.000000 70.710678 -70.710678
vn -0.000000 70.710678 -70.710678
vn 0.000000 -70.710678 70.710678
vn 0.000000 -70.710678 70.710678
vn 0.000000 -70.710678 70.710678
vn 0.000000 -70.710678 -70.710678
vn 0.000000 -70.710678 -70.710678
vn 0.000000 -70.710678 -70.710678
vn 0.000000 70.710678 70.710678
vn 0.000000 70.710678 70.710678
vn 0.000000 70.710678 70.710678
usemtl Steel_-_Satin
f 1/1/1 2/2/2 3/3/3
f 4/4/4 5/5/5 6/6/6
f 1/7/7 4/8/8 6/9/9
f 2/10/10 5/11/11 3/12/12
f 3/13/13 5/14/14 4/15/15
f 2/16/16 1/17/17 6/18/18
f 5/19/19 2/20/20 6/21/21
f 1/22/22 3/23/23 4/24/24
# 6 vertices
# 24 texture params
# 24 normals
# 8 facets

# 1 groups
